<?xml version="1.0" encoding="UTF-8"?>
<svg width="230px" height="58px" viewBox="0 0 230 58" version="1.1" xmlns="http://www.w3.org/2000/svg" xmlns:xlink="http://www.w3.org/1999/xlink">
    <!-- Generator: Sketch 42 (36781) - http://www.bohemiancoding.com/sketch -->
    <title>New-Ventures-BC-logo</title>
    <desc>Created with Sketch.</desc>
    <defs/>
    <g id="New-Ventures-BC-Homepage" stroke="none" stroke-width="1" fill="none" fill-rule="evenodd">
        <g id="NVBC-Desktop-HD" transform="translate(-131.000000, -21.000000)">
            <g id="Nav">
                <g id="New-Ventures-BC-logo" transform="translate(131.000000, 21.000000)">
                    <g>
                        <polygon id="Fill-1" fill="#2F3F4A" points="94.3166642 26.7445304 90.8697019 26.7445304 80.9718906 12.7806473 80.9718906 26.7445304 76.7741736 26.7445304 76.7741736 5.78134104 80.8699094 5.78134104 90.1189472 19.028493 90.1189472 5.78134104 94.3166642 5.78134104"/>
                        <g id="Group-62">
                            <path d="M100.733708,17.3213187 L106.5015,17.3213187 C106.399085,15.6825181 105.477783,14.521683 103.805292,14.521683 C102.406198,14.521683 101.2115,15.4094571 100.733708,17.3213187 L100.733708,17.3213187 Z M100.597009,20.0870931 C100.938538,22.5793722 102.747726,23.6034598 104.999991,23.6034598 C106.672047,23.6034598 107.866745,23.2279466 109.368255,22.2720157 L109.368255,25.7545212 C108.105858,26.6761566 106.399085,27.0859652 104.351651,27.0859652 C99.7099906,27.0859652 96.5359906,24.0814252 96.5359906,19.2331803 C96.5359906,14.4535262 99.5394434,11.1416297 103.702877,11.1416297 C108.139708,11.1416297 110.426255,14.2143265 110.426255,18.7209195 L110.426255,20.0870931 L100.597009,20.0870931 Z" id="Fill-2" fill="#2F3F4A"/>
                            <polygon id="Fill-4" fill="#2F3F4A" points="126.194881 21.2133289 128.924938 11.4829778 133.020674 11.4829778 128.379013 26.7444435 124.488542 26.7444435 121.997164 17.3896056 119.505353 26.7444435 115.614881 26.7444435 110.973221 11.4829778 115.205655 11.4829778 117.936145 21.2133289 120.427089 11.4829778 123.669655 11.4829778"/>
                            <path d="M207.585675,42.0845717 C209.16877,42.0845717 209.938619,41.5002471 209.938619,40.2999071 C209.938619,39.4954839 209.671732,38.5721121 207.585675,38.5721121 L204.919845,38.5721121 L204.919845,42.0845717 L207.585675,42.0845717 Z M208.069543,49.3135271 C209.568449,49.3135271 210.394279,48.6397739 210.394279,47.4151232 C210.394279,46.1913408 209.568449,45.5171534 208.069543,45.5171534 L204.919845,45.5171534 L204.919845,49.3135271 L208.069543,49.3135271 Z M200.834091,52.9740215 L200.834091,34.9124859 L207.813072,34.9124859 C211.742166,34.9124859 213.995732,36.7518496 213.995732,39.9582551 C213.995732,41.5649309 213.275789,42.9406551 212.115374,43.6413237 C213.586506,44.3979937 214.536883,45.9638622 214.536883,47.7285574 C214.536883,51.0621599 212.293732,52.9740215 208.38243,52.9740215 L200.834091,52.9740215 Z" id="Fill-6" fill="#2F3F4A"/>
                            <path d="M224.94204,53.2588906 C219.660285,53.2588906 215.970738,49.4282215 215.970738,43.9431235 C215.970738,38.4584596 219.660285,34.6273563 224.94204,34.6273563 C226.818926,34.6273563 228.409398,35.1070582 229.670058,36.0525702 L229.787228,36.1398282 L229.787228,40.6030092 L229.302058,40.1793087 C228.022738,39.0631879 226.691342,38.5439811 225.112587,38.5439811 C222.144719,38.5439811 220.227474,40.6629177 220.227474,43.9431235 C220.227474,47.2059645 222.144719,49.3140481 225.112587,49.3140481 C226.713908,49.3140481 228.04487,48.8035237 229.302058,47.7069383 L229.787228,47.2828037 L229.787228,51.7459847 L229.670058,51.8341109 C228.409398,52.7791887 226.818926,53.2588906 224.94204,53.2588906" id="Fill-8" fill="#2F3F4A"/>
                            <polygon id="Fill-10" fill="#2F3F4A" points="83.7305453 52.9171953 75.8810358 31.954006 80.4884132 31.954006 85.9146774 47.1134537 91.3413755 31.954006 95.8463377 31.954006 87.9625453 52.9171953"/>
                            <path d="M98.9874868,43.4942007 L104.755279,43.4942007 C104.652864,41.8554001 103.731562,40.694565 102.059072,40.694565 C100.659977,40.694565 99.4652792,41.582339 98.9874868,43.4942007 L98.9874868,43.4942007 Z M98.8507887,46.259975 C99.192317,48.7522542 101.001506,49.7763418 103.25377,49.7763418 C104.925826,49.7763418 106.120525,49.4008286 107.622034,48.4448977 L107.622034,51.9274032 C106.359638,52.8490386 104.652864,53.2588472 102.60543,53.2588472 C97.9637698,53.2588472 94.7897698,50.2543072 94.7897698,45.4060623 C94.7897698,40.6268424 97.7932226,37.3145117 101.956657,37.3145117 C106.393487,37.3145117 108.680034,40.3872085 108.680034,44.8938015 L108.680034,46.259975 L98.8507887,46.259975 Z" id="Fill-12" fill="#2F3F4A"/>
                            <path d="M110.762923,37.6560334 L114.994923,37.6560334 L114.994923,39.0556342 C115.814243,38.0997034 117.315753,37.3143815 119.090225,37.3143815 C122.537621,37.3143815 124.48264,39.567895 124.48264,42.9479483 L124.48264,52.9174992 L120.25064,52.9174992 L120.25064,43.8357224 C120.25064,42.2307831 119.431753,41.1385388 117.759262,41.1385388 C116.462583,41.1385388 115.336451,41.9234266 114.994923,43.2553048 L114.994923,52.9174992 L110.762923,52.9174992 L110.762923,37.6560334 Z" id="Fill-14" fill="#2F3F4A"/>
                            <path d="M151.958396,52.9171953 L147.726396,52.9171953 L147.726396,51.5175945 C146.872792,52.4739594 145.405132,53.2588472 143.63066,53.2588472 C140.217547,53.2588472 138.272528,51.0057678 138.272528,47.6257145 L138.272528,37.6561636 L142.504528,37.6561636 L142.504528,46.7722359 C142.504528,48.3763069 143.289132,49.4694194 144.961623,49.4694194 C146.258302,49.4694194 147.384868,48.6836634 147.692113,47.3526535 L147.692113,37.6561636 L151.958396,37.6561636 L151.958396,52.9171953 Z" id="Fill-16" fill="#2F3F4A"/>
                            <path d="M164.177168,41.8212783 C163.59696,41.4796264 162.846206,41.3090175 162.061168,41.3090175 C160.627791,41.3090175 159.467375,42.0604781 159.16013,43.4600789 L159.16013,52.9173689 L154.928564,52.9173689 L154.928564,37.6559032 L159.16013,37.6559032 L159.16013,39.1583902 C159.80847,38.0657118 161.0713,37.3146854 162.573243,37.3146854 C163.289715,37.3146854 163.938055,37.4509988 164.177168,37.5877464 L164.177168,41.8212783 Z" id="Fill-18" fill="#2F3F4A"/>
                            <path d="M169.092702,43.4942007 L174.860494,43.4942007 C174.758079,41.8554001 173.836777,40.694565 172.164287,40.694565 C170.765192,40.694565 169.570494,41.582339 169.092702,43.4942007 L169.092702,43.4942007 Z M168.956438,46.259975 C169.297532,48.7522542 171.106287,49.7763418 173.358985,49.7763418 C175.031042,49.7763418 176.22574,49.4008286 177.727249,48.4448977 L177.727249,51.9274032 C176.464419,52.8490386 174.758079,53.2588472 172.710211,53.2588472 C168.068985,53.2588472 164.894985,50.2543072 164.894985,45.4060623 C164.894985,40.6268424 167.898438,37.3145117 172.061872,37.3145117 C176.498702,37.3145117 178.785249,40.3872085 178.785249,44.8938015 L178.785249,46.259975 L168.956438,46.259975 Z" id="Fill-20" fill="#2F3F4A"/>
                            <path d="M180.288017,47.7959327 C181.755677,49.1273768 183.871677,49.9126987 185.543734,49.9126987 C186.806564,49.9126987 187.796432,49.5376196 187.796432,48.6159842 C187.796432,47.7620714 187.113809,47.4547149 186.055809,47.1134971 L184.588149,46.7032543 C181.925791,45.9860892 180.254168,44.7236701 180.254168,42.0942092 C180.254168,39.1239646 182.813243,37.3145551 186.226357,37.3145551 C188.171809,37.3145551 189.741451,37.7925205 191.10713,38.6798605 L191.10713,42.5387474 C189.741451,41.4456349 188.171809,40.660313 186.430753,40.660313 C185.270338,40.660313 184.383753,41.1044171 184.383753,41.9578957 C184.383753,42.7770789 184.963092,43.05014 186.02196,43.3917919 L187.7283,43.9036186 C190.629338,44.7236701 191.959866,46.0889754 191.959866,48.5469592 C191.959866,51.6200901 189.264092,53.2584565 185.680432,53.2584565 C183.666847,53.2584565 181.584696,52.7123344 180.288017,51.7225422 L180.288017,47.7959327 Z" id="Fill-22" fill="#2F3F4A"/>
                            <path d="M128.237542,41.0700782 L125.917145,41.0700782 L125.917145,37.6561636 L128.237542,37.6561636 L128.237542,33.5246498 L132.436126,33.5246498 L132.436126,37.6561636 L136.2129,37.6561636 L134.930542,41.0700782 L132.436126,41.0700782 L132.436126,47.762028 C132.436126,48.9567245 133.084466,49.5037148 134.176315,49.5037148 C134.825089,49.5037148 135.54156,49.2979423 136.019353,48.9910199 L136.019353,52.7465864 C135.439145,53.0539429 134.415428,53.2245518 133.289296,53.2245518 C130.182994,53.2245518 128.237542,51.6882034 128.237542,48.3085843 L128.237542,41.0700782 Z" id="Fill-24" fill="#2F3F4A"/>
                            <path d="M13.8024736,6.79626867 L29.6112849,7.14573475 C29.7245491,7.14833946 29.7653415,6.99683181 29.6655302,6.94213277 L19.0577566,1.11494873 C19.0143604,1.09150628 18.9605491,1.09975455 18.9267,1.13535234 L13.7260962,6.6130703 C13.6614358,6.68122704 13.7083038,6.79409807 13.8024736,6.79626867" id="Fill-26" fill="#465460"/>
                            <path d="M29.6846679,1.60949749 L42.2687057,11.1874727 C42.3589698,11.2564977 42.4809132,11.1579526 42.4327434,11.0550663 L37.274234,0.103103346 C37.2534038,0.058823172 37.2048,0.034078369 37.1561962,0.042760756 L29.7306679,1.41631438 C29.6378,1.43367916 29.6095925,1.55262786 29.6846679,1.60949749" id="Fill-28" fill="#465460"/>
                            <path d="M45.5813132,6.75194508 L50.1340113,21.9001057 C50.1669925,22.0090697 50.3236528,22.0008214 50.344917,21.8892527 L52.6062943,9.99611899 C52.6158415,9.94749762 52.5911057,9.89887625 52.5464075,9.87803853 L45.7318981,6.62257752 C45.6468415,6.58220442 45.5539736,6.66164826 45.5813132,6.75194508" id="Fill-30" fill="#465460"/>
                            <path d="M55.4202358,20.2596989 L50.2027075,35.1921022 C50.1653868,35.2993297 50.2968774,35.3848512 50.3797642,35.3071438 L59.1974434,27.0150301 C59.2334623,26.9811688 59.2421415,26.927338 59.2187075,26.8843602 L55.6181226,20.2436365 C55.5729906,20.1607197 55.4514811,20.1707044 55.4202358,20.2596989" id="Fill-32" fill="#465460"/>
                            <path d="M55.4433226,36.9726427 L42.4483226,45.9853946 C42.3550208,46.0500783 42.4114358,46.1963766 42.5238321,46.1820506 L54.5298321,44.6587258 C54.5788698,44.6526482 54.6174925,44.6148798 54.6240019,44.5653902 L55.6125679,37.0759631 C55.6251528,36.9826275 55.5205679,36.9188119 55.4433226,36.9726427" id="Fill-34" fill="#465460"/>
                            <path d="M45.6418943,50.5074856 L29.833083,50.1580195 C29.7198189,50.1554148 29.6790264,50.3069225 29.7788377,50.3616215 L40.3866113,56.1888055 C40.4300075,56.2126821 40.4838189,56.2039997 40.5176679,56.1684019 L45.7182717,50.690684 C45.7829321,50.6229613 45.7360642,50.5096562 45.6418943,50.5074856" id="Fill-36" fill="#465460"/>
                            <path d="M29.7598736,55.6944738 L17.1758358,46.1164986 C17.0855717,46.0470395 16.9636283,46.1460187 17.0117981,46.2484709 L22.1703075,57.200868 C22.1911377,57.244714 22.2397415,57.2703271 22.2883453,57.2607765 L29.7138736,55.8872228 C29.8063075,55.8698581 29.8349491,55.7513435 29.7598736,55.6944738" id="Fill-38" fill="#465460"/>
                            <path d="M13.8632717,50.5515921 L9.31057358,35.4034315 C9.27759245,35.2944676 9.12093208,35.3027158 9.09966792,35.4142845 L6.83829057,47.3074182 C6.8287434,47.3564737 6.85347925,47.404661 6.89817736,47.4259328 L13.7126868,50.6809597 C13.7977434,50.7217669 13.8906113,50.6418889 13.8632717,50.5515921" id="Fill-40" fill="#465460"/>
                            <path d="M4.02430566,37.0442724 L9.24183396,22.1118691 C9.27915472,22.0042075 9.14766415,21.9191201 9.06477736,21.9968275 L0.247098113,30.2885071 C0.211079245,30.3228025 0.2024,30.3766333 0.225833962,30.419177 L3.82641887,37.0603348 C3.87155094,37.1432516 3.99306038,37.1332669 4.02430566,37.0442724" id="Fill-42" fill="#465460"/>
                            <path d="M4.00121887,20.3311115 L16.9962189,11.3183597 C17.0895208,11.2536759 17.0331057,11.1073777 16.9207094,11.1217036 L4.91470943,12.6450284 C4.8656717,12.6511061 4.82704906,12.6893086 4.82053962,12.7383641 L3.83197358,20.2277911 C3.81938868,20.3211268 3.92397358,20.3849423 4.00121887,20.3311115" id="Fill-44" fill="#DF0F77"/>
                            <path d="M33.1951623,28.6518771 C33.1951623,30.5706847 31.6402755,32.1261343 29.7221623,32.1261343 C27.8040491,32.1261343 26.2491623,30.5706847 26.2491623,28.6518771 C26.2491623,26.7330696 27.8040491,25.17762 29.7221623,25.17762 C31.6402755,25.17762 33.1951623,26.7330696 33.1951623,28.6518771" id="Fill-46" fill="#DF0F77"/>
                            <path d="M17.9619585,13.8761475 L25.4703736,12.9019837 C25.5107321,12.8967743 25.5510906,12.9145731 25.5740906,12.9488686 L29.7028075,19.0452066 C29.7639962,19.1355034 29.6689585,19.2492427 29.5695811,19.2053967 L17.9320151,14.0832224 C17.8317698,14.0389423 17.853034,13.8904734 17.9619585,13.8761475" id="Fill-48" fill="#636B75"/>
                            <path d="M33.9376283,10.2414398 L39.380383,15.5064393 C39.4098925,15.5346571 39.4207415,15.5776349 39.4085906,15.6167056 L37.2179491,22.6472685 C37.1858358,22.751023 37.0374208,22.7479842 37.0096472,22.6424932 L33.7571,10.347365 C33.7293264,10.2410057 33.8586472,10.1650348 33.9376283,10.2414398" id="Fill-50" fill="#636B75"/>
                            <path d="M46.7390811,20.47016 L46.0178358,28.0095107 C46.0139302,28.0503179 45.9874585,28.0854816 45.9492698,28.1002417 L39.0887604,30.7709439 C38.9872132,30.8104488 38.897383,30.6923683 38.9624774,30.6046762 L46.5437981,20.3950573 C46.6093264,20.3069311 46.7494962,20.3607619 46.7390811,20.47016" id="Fill-52" fill="#636B75"/>
                            <path d="M46.726583,36.8598585 L40.3842245,40.9965818 C40.3499415,41.0187219 40.3061113,41.0200243 40.2705264,40.9996206 L33.9064698,37.2987532 C33.8123,37.2440541 33.8483189,37.0999265 33.9572434,37.0964536 L46.6636585,36.6605977 C46.7734509,36.6566907 46.818583,36.79995 46.726583,36.8598585" id="Fill-54" fill="#636B75"/>
                            <path d="M33.9094642,47.0688696 L26.7221811,44.687725 C26.6831245,44.6742673 26.654917,44.6408401 26.6488415,44.6000329 L25.5730491,37.3150761 C25.5569925,37.2074145 25.6923887,37.1462036 25.7631245,37.2291204 L34.0262,46.8952219 C34.0973698,46.9790069 34.0136151,47.1035992 33.9094642,47.0688696" id="Fill-56" fill="#636B75"/>
                            <path d="M17.9393057,43.4093737 L15.3190415,36.3037082 C15.3047208,36.2650716 15.3134,36.2216597 15.3416075,36.1917054 L20.3642868,30.8081914 C20.4384943,30.7287475 20.5708528,30.796036 20.5504566,30.9028294 L18.1476075,43.3924431 C18.1267774,43.5001047 17.9774943,43.5126942 17.9393057,43.4093737" id="Fill-58" fill="#636B75"/>
                            <path d="M10.8420698,28.6372473 L14.7620509,22.1575819 C14.7833151,22.1224182 14.8223717,22.1024487 14.8631642,22.1054876 L22.202334,22.6772227 C22.3108245,22.6859051 22.3407679,22.830901 22.2444283,22.881693 L10.9852774,28.7896232 C10.8880698,28.8408493 10.7852208,28.7314512 10.8420698,28.6372473" id="Fill-60" fill="#636B75"/>
                        </g>
                    </g>
                </g>
            </g>
        </g>
    </g>
</svg>